#!OML:ASF H:\ManfredETheater\Project 1\Capture day 1\Session 1\subject.ASF
:FULLY-SPECIFIED
:DEGREES
46
root 0.0371234 15.7459 16.8923 -176.702 2.60819 -176.571
lowerback 20.8984 -2.36542 5.29736
upperback 0.528539 -0.615309 5.21944
thorax -11.2194 -0.140676 2.92682
lowerneck -16.986 0.960988 0.660779
upperneck 0.186355 1.8411 -4.24497
head 3.11683 0.921847 -1.37571
rclavicle -1.43125e-014 -4.6118e-014
rhumerus -32.6189 -1.09095 -87.7669
rradius 98.1152
rwrist -7.89735
rhand -29.9607 3.12038
rfingers 7.12502
rthumb -3.2795 -26.8341
lclavicle -1.43125e-014 -4.6118e-014
lhumerus -33.9286 -18.2587 102.564
lradius 75.5331
lwrist 12.9068
lhand -23.9288 -9.93569
lfingers 7.12502
lthumb 2.54616 20.0289
rfemur -41.3187 -9.10237 31.7978
rtibia 63.8383
rfoot -19.7737 -12.5651
rtoes -19.9108
lfemur -32.0974 6.48025 -11.2519
ltibia 102.239
lfoot -9.43852 -4.02479
ltoes -5.18907
47
root 0.0606073 15.695 16.3709 -176.909 2.37384 -175.827
lowerback 20.9809 -2.3051 6.11854
upperback 0.496268 -0.266094 5.36891
thorax -11.3194 -0.00012575 2.52469
lowerneck -17.0199 0.874164 0.75457
upperneck 0.199594 1.7245 -4.41186
head 3.12921 0.859364 -1.45844
rclavicle 3.18055e-015 1.59028e-015
rhumerus -30.6774 1.27966 -89.1545
rradius 97.5857
rwrist -7.67801
rhand -29.4754 3.1175
rfingers 7.12502
rthumb -2.81086 -26.8437
lclavicle 3.18055e-015 1.59028e-015
lhumerus -35.9157 -18.437 102.703
lradius 74.186
lwrist 13.7074
lhand -23.726 -10.4196
lfingers 7.12502
lthumb 2.74202 19.5425
rfemur -39.3074 -9.40413 32.3353
rtibia 64.8543
rfoot -21.9068 -13.7441
rtoes -22.3189
lfemur -36.6792 7.11727 -10.6666
ltibia 102.909
lfoot -10.6267 -3.68681
ltoes -5.84071
48
root 0.0857077 15.6526 15.8406 -177.094 1.93021 -175.304
lowerback 20.9255 -2.27192 6.76895
upperback 0.424021 -0.0315011 5.44137
thorax -11.3789 0.0849851 2.16637
lowerneck -17.021 0.780916 0.876566
upperneck 0.24629 1.58623 -4.52949
head 3.14579 0.785952 -1.53192
rclavicle 5.56597e-015 -2.38542e-014
rhumerus -29.2628 3.68964 -90.2761
rradius 96.9395
rwrist -7.24266
rhand -28.8632 3.14252
rfingers 7.12502
rthumb -2.2196 -26.8257
lclavicle 5.56597e-015 -2.38542e-014
lhumerus -38.0727 -18.5999 102.796
lradius 73.3952
lwrist 13.7947
lhand -23.3118 -10.8799
lfingers 7.12502
lthumb 3.14196 19.0767
rfemur -37.2063 -10.0067 32.629
rtibia 65.6537
rfoot -23.8549 -14.8372
rtoes -24.6955
lfemur -41.1788 7.39596 -10.6102
ltibia 102.748
lfoot -11.5685 -3.23012
ltoes -6.5059
49
root 0.113819 15.6224 15.3007 -177.25 1.29922 -174.948
lowerback 20.7298 -2.24899 7.27149
upperback 0.309702 0.116492 5.4533
thorax -11.4025 0.128044 1.84944
lowerneck -16.9849 0.665703 1.00538
upperneck 0.324668 1.40781 -4.57096
head 3.16368 0.693436 -1.58451
rclavicle 2.38542e-015 3.97569e-014
rhumerus -28.3581 6.01053 -91.1636
rradius 96.2062
rwrist -6.40134
rhand -28.1001 3.29224
rfingers 7.12502
rthumb -1.48258 -26.6824
lclavicle 2.38542e-015 3.97569e-014
lhumerus -40.3527 -18.6791 102.817
lradius 73.1124
lwrist 13.2025
lhand -22.8069 -11.2963
lfingers 7.12502
lthumb 3.62961 18.6525
rfemur -35.0143 -10.8344 32.7306
rtibia 66.2278
rfoot -25.5249 -15.8006
rtoes -27.0628
lfemur -45.4637 7.33879 -10.9538
ltibia 101.718
lfoot -12.3098 -2.73026
ltoes -7.20801
50
root 0.146354 15.6103 14.7507 -177.376 0.503257 -174.67
lowerback 20.3988 -2.22982 7.67936
upperback 0.161792 0.206113 5.43075
thorax -11.3857 0.142995 1.56421
lowerneck -16.9095 0.511379 1.1143
upperneck 0.421256 1.17113 -4.51755
head 3.17657 0.574177 -1.60614
rclavicle -4.37326e-015 -8.11041e-014
rhumerus -27.9259 8.11126 -91.8565
rradius 95.3864
rwrist -5.00488
rhand -27.2562 3.62445
rfingers 7.12502
rthumb -0.667574 -26.3543
lclavicle -4.37326e-015 -8.11041e-014
lhumerus -42.6934 -18.6105 102.727
lradius 73.2811
lwrist 12.1323
lhand -22.3734 -11.6664
lfingers 7.12502
lthumb 4.04819 18.2749
rfemur -32.7102 -11.7948 32.7273
rtibia 66.5624
rfoot -26.8331 -16.576
rtoes -29.3888
lfemur -49.3686 7.01639 -11.5162
ltibia 99.795
lfoot -12.8681 -2.32814
ltoes -7.81491
51
root 0.183923 15.6254 14.1898 -177.519 -0.407161 -174.408
lowerback 19.9769 -1.36401 8.33735
upperback -0.08289 0.0649835 5.38631
thorax -11.351 -0.543615 1.29508
lowerneck -16.8117 0.309528 1.17471
upperneck 0.540808 0.870191 -4.35019
head 3.18895 0.425919 -1.58552
rclavicle 1.92821e-014 1.145e-013
rhumerus -27.9174 9.83474 -92.3979
rradius 94.4508
rwrist -3.04307
rhand -26.4326 4.14876
rfingers 7.12502
rthumb 0.127943 -25.8309
lclavicle 1.92821e-014 1.145e-013
lhumerus -45.0296 -18.3552 102.469
lradius 73.8524
lwrist 10.9776
lhand -21.9867 -11.9182
lfingers 7.12502
lthumb 4.42166 18.0156
rfemur -30.2348 -12.794 32.669
rtibia 66.6568
rfoot -27.6327 -17.1303
rtoes -31.7934
lfemur -52.6699 6.53789 -12.1656
ltibia 96.951
lfoot -13.26 -2.13155
ltoes -8.44099
52
root 0.22664 15.666 13.6202 -177.683 -1.38233 -174.151
lowerback 19.5063 -1.34669 8.59566
upperback -0.241074 0.125071 5.32883
thorax -11.2633 -0.521124 1.0582
lowerneck -16.7075 0.0554968 1.16462
upperneck 0.685602 0.504389 -4.07332
head 3.20552 0.248409 -1.52028
rclavicle 1.33186e-014 4.77083e-015
rhumerus -28.2625 11.043 -92.8209
rradius 93.3431
rwrist -0.696591
rhand -25.774 4.79372
rfingers 7.12502
rthumb 0.764007 -25.1847
lclavicle 1.33186e-014 4.77083e-015
lhumerus -47.302 -17.8962 101.999
lradius 74.7798
lwrist 10.1242
lhand -21.6861 -12.0465
lfingers 7.12502
lthumb 4.71183 17.8811
rfemur -27.6718 -13.7197 32.5711
rtibia 66.5964
rfoot -27.7559 -17.4295
rtoes -34.3213
lfemur -55.2823 6.02442 -12.8561
ltibia 93.2748
lfoot -13.4915 -2.22079
ltoes -9.27515
53
root 0.272336 15.7224 13.0432 -177.908 -2.36649 -173.908
lowerback 19.0345 -1.30575 8.75126
upperback -0.381416 0.189551 5.26014
thorax -11.1527 -0.48963 0.865112
lowerneck -16.6136 -0.247804 1.06988
upperneck 0.868496 0.0820005 -3.70578
head 3.23596 0.0449098 -1.41398
rclavicle 4.96962e-015 -7.31528e-014
rhumerus -28.9157 11.6226 -93.1413
rradius 92.016
rwrist 1.68155
rhand -25.3657 5.43919
rfingers 7.12502
rthumb 1.15836 -24.5374
lclavicle 4.96962e-015 -7.31528e-014
lhumerus -49.4661 -17.2322 101.274
lradius 76.0224
lwrist 9.86687
lhand -21.4339 -12.061
lfingers 7.12502
lthumb 4.9554 17.8611
rfemur -25.111 -14.481 32.4094
rtibia 66.5301
rfoot -27.0653 -17.4058
rtoes -36.9331
lfemur -57.1686 5.56132 -13.5953
ltibia 88.8999
lfoot -13.4174 -2.62949
ltoes -10.2171
54
root 0.319318 15.7856 12.4603 -178.199 -3.29407 -173.682
lowerback 18.5784 -1.23018 8.78597
upperback -0.49172 0.270626 5.18818
thorax -11.0145 -0.44244 0.731461
lowerneck -16.5398 -0.122006 0.746084
upperneck 1.12361 -0.488823 -3.27191
head 3.29551 -0.552401 -1.2753
rclavicle 4.17448e-015 6.52014e-014
rhumerus -29.8008 11.5296 -93.3426
rradius 90.3967
rwrist 3.731
rhand -25.2365 5.91346
rfingers 7.12502
rthumb 1.2832 -24.0624
lclavicle 4.17448e-015 6.52014e-014
lhumerus -51.4805 -16.3663 100.258
lradius 77.5405
lwrist 10.3448
lhand -21.1705 -11.9645
lfingers 7.12502
lthumb 5.20975 17.9514
rfemur -22.6834 -14.9754 32.1838
rtibia 66.6195
rfoot -25.4349 -16.9837
rtoes -39.5234
lfemur -58.3744 5.24317 -14.3859
ltibia 84.0056
lfoot -12.8999 -3.32614
ltoes -11.0982
